<svg xmlns="http://www.w3.org/2000/svg" data-name="Layer 1" viewBox="0 0 64 64" id="network"><path d="M53,13a8.972,8.972,0,0,0-8.941,10H41.2a1,1,0,0,0-.952.7l-2.8,8.76A10.9,10.9,0,0,0,33,31.051V17.931a8,8,0,1,0-2,0v13.12a10.9,10.9,0,0,0-4.445,1.4l-2.8-8.76A1,1,0,0,0,22.8,23H19.941a9.038,9.038,0,1,0-.466,2H22.07l2.773,8.664A10.972,10.972,0,0,0,21,42c0,.338.021.67.051,1H8a1,1,0,0,0-1,1v9.184a3,3,0,1,0,2,0V45H21.426a10.956,10.956,0,0,0,1.366,3H19a1,1,0,0,0-1,1v5.184a3,3,0,1,0,2,0V50h4.474A10.951,10.951,0,0,0,31,52.949v3.235a3,3,0,1,0,2,0V52.949A10.951,10.951,0,0,0,39.526,50H44v4.184a3,3,0,1,0,2,0V49a1,1,0,0,0-1-1H41.208a10.956,10.956,0,0,0,1.366-3H55v8.184a3,3,0,1,0,2,0V44a1,1,0,0,0-1-1H42.949c.03-.33.051-.662.051-1a10.972,10.972,0,0,0-3.843-8.336L41.93,25h2.595A9,9,0,1,0,53,13ZM8.557,28.551c.029-.033.05-.071.081-.1A2.214,2.214,0,0,1,10.2,27.8h1.6a2.181,2.181,0,0,1,1.648.75,6.877,6.877,0,0,1-4.891,0ZM11,25.8a1.4,1.4,0,1,1,1.4-1.4A1.4,1.4,0,0,1,11,25.8Zm4.223,1.769a4.153,4.153,0,0,0-1.416-1.256A3.368,3.368,0,0,0,14.4,24.4a3.4,3.4,0,1,0-6.2,1.928,4.313,4.313,0,0,0-.983.709,4.288,4.288,0,0,0-.425.546,7,7,0,1,1,8.427-.014ZM8,57a1,1,0,1,1,1-1A1,1,0,0,1,8,57Zm11,1a1,1,0,1,1,1-1A1,1,0,0,1,19,58Zm26,0a1,1,0,1,1,1-1A1,1,0,0,1,45,58Zm11-1a1,1,0,1,1,1-1A1,1,0,0,1,56,57ZM32,13.2a1.1,1.1,0,1,1,1.1-1.1A1.1,1.1,0,0,1,32,13.2Zm-.7,2h1.4a1.774,1.774,0,0,1,1.2.486,5.913,5.913,0,0,1-3.82-.006A1.812,1.812,0,0,1,31.3,15.2ZM26,10a6,6,0,1,1,9.72,4.7,3.732,3.732,0,0,0-1.1-.968A3.065,3.065,0,0,0,35.1,12.1a3.1,3.1,0,1,0-5.72,1.639,3.915,3.915,0,0,0-.776.58,4.08,4.08,0,0,0-.306.394A5.99,5.99,0,0,1,26,10Zm6,37a2,2,0,1,1,2-2A2,2,0,0,1,32,47Zm-1,2h2a2.972,2.972,0,0,1,2.468,1.3,8.975,8.975,0,0,1-6.926,0A2.813,2.813,0,0,1,31,49Zm1,11a1,1,0,1,1,1-1A1,1,0,0,1,32,60Zm9-18a8.99,8.99,0,0,1-3.792,7.327,4.923,4.923,0,0,0-2.092-1.85A3.956,3.956,0,0,0,36,45a4,4,0,0,0-8,0,3.96,3.96,0,0,0,.891,2.486,4.687,4.687,0,0,0-2.106,1.836A9,9,0,1,1,41,42Zm9.552-13.45A2.181,2.181,0,0,1,52.2,27.8h1.6a2.2,2.2,0,0,1,1.55.636c.035.036.058.078.091.116a6.879,6.879,0,0,1-4.889,0ZM53,25.8a1.4,1.4,0,1,1,1.4-1.4A1.4,1.4,0,0,1,53,25.8Zm4.2,1.784a4.574,4.574,0,0,0-.437-.56,4.323,4.323,0,0,0-.97-.7,3.4,3.4,0,1,0-5.6-.013,4.153,4.153,0,0,0-1.416,1.256,7,7,0,1,1,8.427.015Z"></path></svg>