<?xml version="1.0" encoding="iso-8859-1"?>
<!-- Uploaded to: SVG Repo, www.svgrepo.com, Generator: SVG Repo Mixer Tools -->
<svg version="1.1" id="Layer_1" xmlns="http://www.w3.org/2000/svg" xmlns:xlink="http://www.w3.org/1999/xlink" 
	 viewBox="0 0 509.287 509.287" xml:space="preserve">
<circle style="fill:#4F5565;" cx="254.644" cy="254.644" r="254.644"/>
<g>
	<polygon style="fill:#FBD303;" points="296.689,321.78 254.644,279.735 212.599,321.78 205.478,314.66 254.644,265.494 
		303.809,314.66 	"/>
	<rect x="249.558" y="221.754" style="fill:#FBD303;" width="10.172" height="50.861"/>
</g>
<path style="fill:#DEDEDF;" d="M222.093,304.827c0-3.73-3.052-6.781-6.781-6.781H71.544c-3.73,0-6.781,3.052-6.781,6.781v92.228
	h157.33V304.827z"/>
<path style="fill:#F1F3F7;" d="M64.763,397.054v11.868c0,3.73,3.052,6.781,6.781,6.781H215.65c3.73,0,6.781-3.052,6.781-6.781
	v-11.868H64.763z"/>
<rect x="72.562" y="305.505" style="fill:#4485C5;" width="141.393" height="83.751"/>
<rect x="114.946" y="415.364" style="fill:#BDBDBE;" width="56.964" height="20.005"/>
<rect x="104.434" y="435.37" style="fill:#F1F3F7;" width="77.648" height="7.46"/>
<path style="fill:#DEDEDF;" d="M444.525,304.827c0-3.73-3.052-6.781-6.781-6.781H293.637c-3.73,0-6.781,3.052-6.781,6.781v92.228
	h157.33v-92.228H444.525z"/>
<path style="fill:#F1F3F7;" d="M287.195,397.054v11.868c0,3.73,3.052,6.781,6.781,6.781h144.106c3.73,0,6.781-3.052,6.781-6.781
	v-11.868H287.195z"/>
<rect x="294.993" y="305.505" style="fill:#4485C5;" width="141.393" height="83.751"/>
<rect x="337.377" y="415.364" style="fill:#BDBDBE;" width="56.964" height="20.005"/>
<rect x="326.866" y="435.37" style="fill:#F1F3F7;" width="77.648" height="7.46"/>
<path style="fill:#DEDEDF;" d="M365.521,40.011c0-5.086-4.069-9.494-9.494-9.494H153.261c-5.086,0-9.494,4.069-9.494,9.494v129.526
	h221.415V40.011H365.521z"/>
<path style="fill:#F1F3F7;" d="M143.767,169.536v16.615c0,5.086,4.069,9.494,9.494,9.494h202.766c5.086,0,9.494-4.069,9.494-9.494
	v-16.615H143.767z"/>
<rect x="154.956" y="41.028" style="fill:#4485C5;" width="199.036" height="117.997"/>
<rect x="214.633" y="195.645" style="fill:#BDBDBE;" width="80.021" height="28.143"/>
<rect x="200.053" y="223.788" style="fill:#F1F3F7;" width="109.181" height="10.511"/>
</svg>