<?xml version="1.0" encoding="utf-8"?>
<!-- Generator: Adobe Illustrator 25.2.0, SVG Export Plug-In . SVG Version: 6.00 Build 0)  -->
<svg version="1.0" xmlns="http://www.w3.org/2000/svg" xmlns:xlink="http://www.w3.org/1999/xlink" x="0px" y="0px"
	 viewBox="0 0 500 360.39" style="enable-background:new 0 0 500 360.39;" xml:space="preserve">
<style type="text/css">
	.st0{fill:none;stroke:#000000;stroke-width:7;stroke-miterlimit:10;}
	.st1{fill:#3178C6;}
	.st2{fill:#FFFFFF;}
	.st3{fill:#0892FF;}
	.st4{display:none;}
	.st5{fill:#D10037;}
	.st6{fill:#FF74FD;}
	.st7{fill:#93FFA7;}
	.st8{fill:#FF0A38;}
	.st9{display:none;fill:none;stroke:#000000;stroke-miterlimit:10;}
</style>
<g id="layer_1">
</g>
<g id="PCs">
</g>
<g id="Art_1">
</g>
<g id="Art_2">
</g>
<g id="ipv4">
</g>
<g id="ipv4-export">
	<g id="ipv4_copy">
		<g id="art_3_pc_7_">
			<ellipse cx="441.46" cy="91.25" rx="23.98" ry="6.14"/>
			<g>
				<path d="M443.49,78.02c0,1.12-0.91,2.04-2.03,2.04c-1.12,0-2.04-0.91-2.04-2.04c0-0.98,0.7-1.8,1.63-1.99v2.09
					c0,0.22,0.18,0.41,0.41,0.41c0.22,0,0.4-0.18,0.4-0.41v-2.09C442.8,76.21,443.49,77.04,443.49,78.02z"/>
			</g>
			<g>
				<path d="M489.25,15.77h-96.07c-1.05,0-1.9,0.85-1.9,1.9v62.53c0,1.05,0.85,1.9,1.9,1.9h96.07c1.05,0,1.9-0.85,1.9-1.9V17.67
					C491.16,16.62,490.3,15.77,489.25,15.77z M441.46,80.84c-1.55,0-2.81-1.26-2.81-2.81c0-1.4,1.04-2.58,2.4-2.77V74.1
					c0-0.22,0.18-0.4,0.41-0.4c0.22,0,0.4,0.18,0.4,0.4v1.15c1.36,0.19,2.41,1.37,2.41,2.77C444.27,79.57,443.01,80.84,441.46,80.84
					z"/>
			</g>
			<rect x="399.34" y="23.4" class="st8" width="84.24" height="48.03"/>
			<rect x="436.93" y="82.11" width="9.07" height="4.1"/>
			<path class="st4" d="M452.23,87.21H430.7l0,0c0-0.55,0.44-0.99,0.99-0.99h19.54C451.78,86.22,452.23,86.66,452.23,87.21
				L452.23,87.21z"/>
		</g>
		<g id="art_3_pc_6_">
			<ellipse cx="58.36" cy="91.25" rx="23.98" ry="6.14"/>
			<g>
				<path d="M60.39,78.02c0,1.12-0.91,2.04-2.03,2.04c-1.12,0-2.04-0.91-2.04-2.04c0-0.98,0.7-1.8,1.63-1.99v2.09
					c0,0.22,0.18,0.41,0.41,0.41c0.22,0,0.4-0.18,0.4-0.41v-2.09C59.69,76.21,60.39,77.04,60.39,78.02z"/>
			</g>
			<g>
				<path d="M106.15,15.77H10.08c-1.05,0-1.9,0.85-1.9,1.9v62.53c0,1.05,0.85,1.9,1.9,1.9h96.07c1.05,0,1.9-0.85,1.9-1.9V17.67
					C108.05,16.62,107.2,15.77,106.15,15.77z M58.36,80.84c-1.55,0-2.81-1.26-2.81-2.81c0-1.4,1.04-2.58,2.4-2.77V74.1
					c0-0.22,0.18-0.4,0.41-0.4c0.22,0,0.4,0.18,0.4,0.4v1.15c1.36,0.19,2.41,1.37,2.41,2.77C61.17,79.57,59.91,80.84,58.36,80.84z"
					/>
			</g>
			<rect x="16.24" y="23.4" class="st8" width="84.24" height="48.03"/>
			<rect x="53.83" y="82.11" width="9.07" height="4.1"/>
			<path class="st4" d="M69.13,87.21H47.59l0,0c0-0.55,0.44-0.99,0.99-0.99h19.54C68.68,86.22,69.13,86.66,69.13,87.21L69.13,87.21z
				"/>
		</g>
		<g id="art_3_pc_5_">
			<ellipse cx="58.36" cy="342.72" rx="23.98" ry="6.14"/>
			<g>
				<path d="M60.39,329.5c0,1.12-0.91,2.04-2.03,2.04c-1.12,0-2.04-0.91-2.04-2.04c0-0.98,0.7-1.8,1.63-1.99v2.09
					c0,0.22,0.18,0.41,0.41,0.41c0.22,0,0.4-0.18,0.4-0.41v-2.09C59.69,327.69,60.39,328.52,60.39,329.5z"/>
			</g>
			<g>
				<path d="M106.15,267.25H10.08c-1.05,0-1.9,0.85-1.9,1.9v62.53c0,1.05,0.85,1.9,1.9,1.9h96.07c1.05,0,1.9-0.85,1.9-1.9v-62.53
					C108.05,268.1,107.2,267.25,106.15,267.25z M58.36,332.31c-1.55,0-2.81-1.26-2.81-2.81c0-1.4,1.04-2.58,2.4-2.77v-1.15
					c0-0.22,0.18-0.4,0.41-0.4c0.22,0,0.4,0.18,0.4,0.4v1.15c1.36,0.19,2.41,1.37,2.41,2.77C61.17,331.05,59.91,332.31,58.36,332.31
					z"/>
			</g>
			<rect x="16.24" y="274.88" class="st8" width="84.24" height="48.03"/>
			<rect x="53.83" y="333.59" width="9.07" height="4.1"/>
			<path class="st4" d="M69.13,338.69H47.59l0,0c0-0.55,0.44-0.99,0.99-0.99h19.54C68.68,337.69,69.13,338.14,69.13,338.69
				L69.13,338.69z"/>
		</g>
		<g id="art_3_pc_4_">
			<ellipse cx="443.74" cy="342.72" rx="23.98" ry="6.14"/>
			<g>
				<path d="M445.77,329.5c0,1.12-0.91,2.04-2.03,2.04c-1.12,0-2.04-0.91-2.04-2.04c0-0.98,0.7-1.8,1.63-1.99v2.09
					c0,0.22,0.18,0.41,0.41,0.41c0.22,0,0.4-0.18,0.4-0.41v-2.09C445.08,327.69,445.77,328.52,445.77,329.5z"/>
			</g>
			<g>
				<path d="M491.53,267.25h-96.07c-1.05,0-1.9,0.85-1.9,1.9v62.53c0,1.05,0.85,1.9,1.9,1.9h96.07c1.05,0,1.9-0.85,1.9-1.9v-62.53
					C493.43,268.1,492.58,267.25,491.53,267.25z M443.74,332.31c-1.55,0-2.81-1.26-2.81-2.81c0-1.4,1.04-2.58,2.4-2.77v-1.15
					c0-0.22,0.18-0.4,0.41-0.4c0.22,0,0.4,0.18,0.4,0.4v1.15c1.36,0.19,2.41,1.37,2.41,2.77
					C446.55,331.05,445.29,332.31,443.74,332.31z"/>
			</g>
			<rect x="401.62" y="274.88" class="st8" width="84.24" height="48.03"/>
			<rect x="439.21" y="333.59" width="9.07" height="4.1"/>
			<path class="st4" d="M454.51,338.69h-21.53l0,0c0-0.55,0.44-0.99,0.99-0.99h19.54C454.06,337.69,454.51,338.14,454.51,338.69
				L454.51,338.69z"/>
		</g>
		<g id="Globe_4_">
			<path d="M251.87,25.42c23.64,0,46.22,5.43,67.09,16.12c19.93,10.22,37.57,25.13,51.02,43.14c2.68,3.58,5.29,7.44,7.74,11.43
				c0.5,0.82,1,1.66,1.48,2.49l0.21,0.37l0.17,0.27l0.18,0.32c12.71,22.16,19.42,47.46,19.42,73.18s-6.72,51.02-19.4,73.14
				c-0.77,1.33-1.41,2.4-2.01,3.37l-0.03,0.05l-0.03,0.05c-2.32,3.82-4.93,7.68-7.74,11.45c-13.44,18-31.08,32.92-51.01,43.13
				c-20.88,10.7-43.45,16.13-67.11,16.13c-46.03,0-88.56-20.92-116.7-57.41c-3.29-4.27-6.38-8.75-9.17-13.32l-0.03-0.04l-0.03-0.04
				c-0.6-0.97-1.23-2.04-1.98-3.33c-12.71-22.16-19.42-47.46-19.42-73.18s6.72-51.02,19.44-73.21l0.17-0.29l0.18-0.27l0.21-0.37
				c0.48-0.83,0.98-1.67,1.46-2.45c2.8-4.59,5.88-9.07,9.15-13.31C163.3,46.34,205.84,25.42,251.87,25.42 M251.87,9.05
				c-52.79,0-99.75,25-129.68,63.79c-3.65,4.73-7.04,9.66-10.17,14.78c-0.56,0.92-1.11,1.85-1.65,2.78
				c-0.21,0.33-0.41,0.67-0.61,1.01c-13.73,23.95-21.59,51.73-21.59,81.32c0,29.6,7.86,57.37,21.59,81.32
				c0.74,1.28,1.49,2.55,2.26,3.8c3.13,5.12,6.53,10.07,10.18,14.8c29.92,38.8,76.87,63.77,129.66,63.77
				c53.72,0,101.39-25.86,131.23-65.84c3.06-4.11,5.94-8.35,8.61-12.74c0.77-1.24,1.52-2.52,2.26-3.8
				c13.73-23.95,21.59-51.73,21.59-81.32c0-29.6-7.86-57.37-21.59-81.32c-0.2-0.34-0.39-0.69-0.61-1.01
				c-0.54-0.93-1.1-1.87-1.65-2.78c-2.68-4.39-5.55-8.64-8.63-12.75C353.24,34.91,305.58,9.05,251.87,9.05L251.87,9.05z"/>
			<rect x="251.87" y="167.01" width="155.72" height="11.46"/>
			<rect x="96.93" y="167.01" width="154.94" height="11.46"/>
			<rect x="246.14" y="24.85" width="11.46" height="295.79"/>
			<path d="M251.87,133.06c-22.81,0-45.33-3.37-66.91-10.03c-20.79-6.41-40.6-15.84-58.89-28.04l6.36-9.53
				c17.37,11.58,36.18,20.54,55.91,26.62c20.49,6.32,41.87,9.52,63.54,9.52c21.67,0,43.04-3.2,63.54-9.52
				c19.73-6.08,38.54-15.04,55.91-26.62l6.36,9.53c-18.29,12.2-38.1,21.63-58.89,28.04C297.2,129.68,274.68,133.06,251.87,133.06z"
				/>
			<path d="M371.32,260.02c-17.46-11.66-36.43-20.66-56.38-26.76c-20.37-6.22-41.59-9.38-63.06-9.38c-21.47,0-42.69,3.16-63.06,9.38
				c-19.96,6.1-38.93,15.1-56.38,26.76l-6.36-9.53c18.38-12.28,38.37-21.76,59.4-28.19c21.46-6.56,43.8-9.88,66.41-9.88
				c22.61,0,44.95,3.32,66.41,9.88c21.03,6.43,41.01,15.91,59.4,28.19L371.32,260.02z"/>
			<path d="M248.43,325.22c-42.07-31.55-60.63-73.07-68.78-102.34c-6.92-24.92-7.46-44.68-7.46-50.14c0-17.14,2.34-34.07,6.96-50.31
				c17.12-60.51,60.71-95.72,69.27-102.16l6.89,9.16c-8.05,6.05-49.01,39.15-65.14,96.13c-4.33,15.23-6.53,31.1-6.53,47.19
				c0,5.09,0.51,23.54,7.04,47.07c7.68,27.55,25.12,66.62,64.62,96.24L248.43,325.22z"/>
			<path d="M255.31,325.22l-6.87-9.17c39.5-29.62,56.94-68.69,64.62-96.25c6.53-23.52,7.04-41.97,7.04-47.06
				c0-16.08-2.19-31.95-6.53-47.18c-16.12-56.98-57.09-90.08-65.14-96.14l6.89-9.15c8.56,6.44,52.15,41.66,69.27,102.16
				c4.62,16.24,6.96,33.17,6.96,50.31c0,5.46-0.54,25.21-7.46,50.13C315.93,252.15,297.38,293.66,255.31,325.22z"/>
		</g>
	</g>
</g>
<g id="ipv6-export">
	<g id="IPv6_copy">
	</g>
</g>
<g id="IPv6">
</g>
<g id="TS_logo">
</g>
</svg>
