<?xml version="1.0" encoding="utf-8"?>
<!-- Generator: Adobe Illustrator 25.2.0, SVG Export Plug-In . SVG Version: 6.00 Build 0)  -->
<svg version="1.0" xmlns="http://www.w3.org/2000/svg" xmlns:xlink="http://www.w3.org/1999/xlink" x="0px" y="0px"
	 viewBox="0 0 500 360.39" style="enable-background:new 0 0 500 360.39;" xml:space="preserve">
<style type="text/css">
	.st0{fill:none;stroke:#000000;stroke-width:7;stroke-miterlimit:10;}
	.st1{fill:#3178C6;}
	.st2{fill:#FFFFFF;}
	.st3{fill:#0892FF;}
	.st4{display:none;}
	.st5{fill:#D10037;}
	.st6{fill:#FF74FD;}
	.st7{fill:#93FFA7;}
	.st8{fill:#FF0A38;}
	.st9{display:none;fill:none;stroke:#000000;stroke-miterlimit:10;}
</style>
<g id="layer_1">
</g>
<g id="PCs">
</g>
<g id="Art_1">
</g>
<g id="Art_2">
</g>
<g id="ipv4">
</g>
<g id="ipv4-export">
	<g id="ipv4_copy">
	</g>
</g>
<g id="ipv6-export">
	<g id="IPv6_copy">
		<g id="Globe_5_">
			<path d="M249.47,49.71c20.43,0,39.93,4.69,57.96,13.93c17.22,8.83,32.46,21.71,44.08,37.27c2.32,3.09,4.57,6.43,6.68,9.88
				c0.43,0.71,0.86,1.43,1.28,2.15l0.18,0.32l0.15,0.23l0.16,0.28c10.98,19.14,16.78,41,16.78,63.22s-5.8,44.08-16.76,63.19
				c-0.66,1.15-1.21,2.08-1.73,2.91l-0.03,0.04l-0.03,0.04c-2.01,3.3-4.26,6.63-6.69,9.89c-11.61,15.55-26.85,28.44-44.07,37.26
				c-18.04,9.24-37.54,13.93-57.97,13.93c-39.76,0-76.51-18.08-100.82-49.59c-2.84-3.68-5.51-7.56-7.92-11.51l-0.02-0.04l-0.02-0.04
				c-0.52-0.84-1.07-1.76-1.71-2.88c-10.98-19.14-16.78-41-16.78-63.22s5.8-44.08,16.79-63.25l0.14-0.25l0.15-0.23l0.19-0.32
				c0.42-0.72,0.85-1.44,1.26-2.12c2.42-3.97,5.08-7.84,7.91-11.5C172.95,67.79,209.7,49.71,249.47,49.71 M249.47,35.57
				c-45.61,0-86.18,21.59-112.03,55.11c-3.15,4.09-6.08,8.34-8.78,12.77c-0.48,0.79-0.96,1.6-1.43,2.4
				c-0.18,0.28-0.35,0.58-0.52,0.88c-11.86,20.69-18.65,44.69-18.65,70.26c0,25.57,6.79,49.57,18.65,70.26
				c0.64,1.1,1.29,2.21,1.95,3.28c2.7,4.43,5.64,8.7,8.8,12.78c25.85,33.52,66.41,55.1,112.02,55.1
				c46.41,0,87.59-22.34,113.38-56.88c2.64-3.55,5.13-7.21,7.44-11c0.66-1.07,1.32-2.18,1.95-3.28
				c11.86-20.69,18.65-44.69,18.65-70.26c0-25.57-6.79-49.57-18.65-70.26c-0.17-0.3-0.34-0.59-0.52-0.88
				c-0.47-0.81-0.95-1.61-1.43-2.4c-2.32-3.79-4.79-7.47-7.45-11.02C337.05,57.91,295.87,35.57,249.47,35.57L249.47,35.57z"/>
			<rect x="249.47" y="172.04" width="134.53" height="9.9"/>
			<rect x="115.61" y="172.04" width="133.86" height="9.9"/>
			<rect x="244.52" y="49.22" width="9.9" height="255.54"/>
			<path d="M249.47,142.71c-19.71,0-39.16-2.92-57.81-8.66c-17.96-5.54-35.08-13.69-50.88-24.22l5.49-8.24
				c15,10.01,31.25,17.74,48.3,23c17.7,5.46,36.17,8.23,54.89,8.23c18.72,0,37.19-2.77,54.89-8.23c17.05-5.25,33.3-12.99,48.3-23
				l5.49,8.24c-15.8,10.54-32.92,18.69-50.88,24.22C288.63,139.79,269.18,142.71,249.47,142.71z"/>
			<path d="M352.66,252.39c-15.08-10.07-31.47-17.85-48.71-23.12c-17.6-5.38-35.93-8.1-54.48-8.1c-18.55,0-36.88,2.73-54.48,8.1
				c-17.24,5.27-33.63,13.05-48.71,23.12l-5.5-8.23c15.88-10.61,33.15-18.8,51.31-24.35c18.54-5.67,37.84-8.54,57.38-8.54
				c19.53,0,38.83,2.87,57.37,8.54c18.17,5.55,35.43,13.75,51.32,24.35L352.66,252.39z"/>
			<path d="M246.5,308.72c-36.35-27.26-52.38-63.13-59.42-88.41c-5.98-21.53-6.44-38.6-6.44-43.31c0-14.81,2.02-29.43,6.01-43.47
				c14.79-52.28,52.45-82.69,59.84-88.26l5.95,7.91c-6.95,5.23-42.34,33.82-56.27,83.05c-3.74,13.16-5.64,26.87-5.64,40.76
				c0,4.4,0.44,20.34,6.08,40.66c6.63,23.8,21.7,57.56,55.82,83.15L246.5,308.72z"/>
			<path d="M252.44,308.72l-5.94-7.92c34.12-25.59,49.19-59.34,55.82-83.15c5.64-20.32,6.08-36.26,6.08-40.66
				c0-13.89-1.9-27.6-5.64-40.76C288.84,87,253.45,58.41,246.49,53.17l5.95-7.91c7.4,5.57,45.05,35.99,59.84,88.26
				c3.99,14.03,6.01,28.65,6.01,43.46c0,4.72-0.46,21.78-6.44,43.31C304.82,245.59,288.79,281.45,252.44,308.72z"/>
		</g>
		<g id="ipv6_pc_11_">
			<ellipse cx="119.98" cy="68.43" rx="19.3" ry="4.94"/>
			<g>
				<path d="M121.62,57.78c0,0.9-0.73,1.64-1.64,1.64c-0.9,0-1.64-0.74-1.64-1.64c0-0.79,0.57-1.45,1.31-1.6v1.68
					c0,0.18,0.15,0.33,0.33,0.33c0.18,0,0.32-0.15,0.32-0.33v-1.68C121.06,56.33,121.62,56.99,121.62,57.78z"/>
			</g>
			<g>
				<path d="M158.46,7.67H81.11c-0.85,0-1.53,0.69-1.53,1.53v50.34c0,0.85,0.68,1.53,1.53,1.53h77.34c0.85,0,1.53-0.68,1.53-1.53
					V9.2C159.99,8.35,159.3,7.67,158.46,7.67z M119.98,60.05c-1.25,0-2.26-1.02-2.26-2.26c0-1.13,0.84-2.08,1.93-2.23v-0.93
					c0-0.18,0.15-0.32,0.33-0.32c0.18,0,0.32,0.14,0.32,0.32v0.93c1.09,0.15,1.94,1.1,1.94,2.23
					C122.24,59.03,121.23,60.05,119.98,60.05z"/>
			</g>
			<rect x="86.07" y="13.81" class="st3" width="67.82" height="38.67"/>
			<rect x="116.33" y="61.07" width="7.3" height="3.3"/>
			<path class="st4" d="M128.65,65.18h-17.33l0,0c0-0.44,0.36-0.8,0.8-0.8h15.73C128.29,64.38,128.65,64.74,128.65,65.18
				L128.65,65.18z"/>
		</g>
		<g id="ipv6_pc_10_">
			<ellipse cx="377.11" cy="353.7" rx="19.3" ry="4.94"/>
			<g>
				<path d="M378.74,343.05c0,0.9-0.73,1.64-1.64,1.64s-1.64-0.74-1.64-1.64c0-0.79,0.57-1.45,1.31-1.6v1.68
					c0,0.18,0.15,0.33,0.33,0.33s0.32-0.15,0.32-0.33v-1.68C378.18,341.59,378.74,342.26,378.74,343.05z"/>
			</g>
			<g>
				<path d="M415.58,292.93h-77.34c-0.85,0-1.53,0.68-1.53,1.53v50.34c0,0.85,0.68,1.53,1.53,1.53h77.34c0.85,0,1.53-0.68,1.53-1.53
					v-50.34C417.11,293.62,416.43,292.93,415.58,292.93z M377.11,345.31c-1.25,0-2.26-1.02-2.26-2.26c0-1.13,0.84-2.08,1.93-2.23
					v-0.93c0-0.18,0.15-0.32,0.33-0.32s0.32,0.14,0.32,0.32v0.93c1.09,0.15,1.94,1.1,1.94,2.23
					C379.37,344.3,378.35,345.31,377.11,345.31z"/>
			</g>
			<rect x="343.2" y="299.08" class="st3" width="67.82" height="38.67"/>
			<rect x="373.46" y="346.34" width="7.3" height="3.3"/>
			<path class="st4" d="M385.77,350.45h-17.33l0,0c0-0.44,0.36-0.8,0.8-0.8h15.73C385.42,349.65,385.77,350,385.77,350.45
				L385.77,350.45z"/>
		</g>
		<g id="ipv6_pc_9_">
			<ellipse cx="118.57" cy="351.27" rx="19.3" ry="4.94"/>
			<g>
				<path d="M120.2,340.62c0,0.9-0.73,1.64-1.64,1.64c-0.9,0-1.64-0.74-1.64-1.64c0-0.79,0.57-1.45,1.31-1.6v1.68
					c0,0.18,0.15,0.33,0.33,0.33c0.18,0,0.32-0.15,0.32-0.33v-1.68C119.64,339.16,120.2,339.83,120.2,340.62z"/>
			</g>
			<g>
				<path d="M157.04,290.5H79.7c-0.85,0-1.53,0.69-1.53,1.53v50.34c0,0.85,0.68,1.53,1.53,1.53h77.34c0.85,0,1.53-0.68,1.53-1.53
					v-50.34C158.57,291.19,157.89,290.5,157.04,290.5z M118.57,342.88c-1.25,0-2.26-1.02-2.26-2.26c0-1.13,0.84-2.08,1.93-2.23
					v-0.93c0-0.18,0.15-0.32,0.33-0.32c0.18,0,0.32,0.14,0.32,0.32v0.93c1.09,0.15,1.94,1.1,1.94,2.23
					C120.83,341.87,119.82,342.88,118.57,342.88z"/>
			</g>
			<rect x="84.66" y="296.65" class="st3" width="67.82" height="38.67"/>
			<rect x="114.92" y="343.91" width="7.3" height="3.3"/>
			<path class="st4" d="M127.24,348.02H109.9l0,0c0-0.44,0.36-0.8,0.8-0.8h15.73C126.88,347.22,127.24,347.57,127.24,348.02
				L127.24,348.02z"/>
		</g>
		<g id="ipv6_pc_8_">
			<ellipse cx="440" cy="209.85" rx="19.3" ry="4.94"/>
			<g>
				<path d="M441.63,199.2c0,0.9-0.73,1.64-1.64,1.64c-0.9,0-1.64-0.74-1.64-1.64c0-0.79,0.57-1.45,1.31-1.6v1.68
					c0,0.18,0.15,0.33,0.33,0.33c0.18,0,0.32-0.15,0.32-0.33v-1.68C441.07,197.74,441.63,198.41,441.63,199.2z"/>
			</g>
			<g>
				<path d="M478.47,149.08h-77.34c-0.85,0-1.53,0.68-1.53,1.53v50.34c0,0.85,0.68,1.53,1.53,1.53h77.34c0.85,0,1.53-0.68,1.53-1.53
					v-50.34C480,149.77,479.32,149.08,478.47,149.08z M440,201.47c-1.25,0-2.26-1.02-2.26-2.26c0-1.13,0.84-2.08,1.93-2.23v-0.93
					c0-0.18,0.15-0.32,0.33-0.32c0.18,0,0.32,0.14,0.32,0.32v0.93c1.09,0.15,1.94,1.1,1.94,2.23
					C442.26,200.45,441.25,201.47,440,201.47z"/>
			</g>
			<rect x="406.09" y="155.23" class="st3" width="67.82" height="38.67"/>
			<rect x="436.35" y="202.49" width="7.3" height="3.3"/>
			<path class="st4" d="M448.67,206.6h-17.33l0,0c0-0.44,0.36-0.8,0.8-0.8h15.73C448.31,205.8,448.67,206.16,448.67,206.6
				L448.67,206.6z"/>
		</g>
		<g id="ipv6_pc_7_">
			<ellipse cx="60.4" cy="209.85" rx="19.3" ry="4.94"/>
			<g>
				<path d="M62.04,199.2c0,0.9-0.73,1.64-1.64,1.64c-0.9,0-1.64-0.74-1.64-1.64c0-0.79,0.57-1.45,1.31-1.6v1.68
					c0,0.18,0.15,0.33,0.33,0.33c0.18,0,0.32-0.15,0.32-0.33v-1.68C61.47,197.74,62.04,198.41,62.04,199.2z"/>
			</g>
			<g>
				<path d="M98.87,149.08H21.53c-0.85,0-1.53,0.68-1.53,1.53v50.34c0,0.85,0.68,1.53,1.53,1.53h77.34c0.85,0,1.53-0.68,1.53-1.53
					v-50.34C100.41,149.77,99.72,149.08,98.87,149.08z M60.4,201.47c-1.25,0-2.26-1.02-2.26-2.26c0-1.13,0.84-2.08,1.93-2.23v-0.93
					c0-0.18,0.15-0.32,0.33-0.32c0.18,0,0.32,0.14,0.32,0.32v0.93c1.09,0.15,1.94,1.1,1.94,2.23
					C62.66,200.45,61.65,201.47,60.4,201.47z"/>
			</g>
			<rect x="26.49" y="155.23" class="st3" width="67.82" height="38.67"/>
			<rect x="56.75" y="202.49" width="7.3" height="3.3"/>
			<path class="st4" d="M69.07,206.6H51.73l0,0c0-0.44,0.36-0.8,0.8-0.8h15.73C68.71,205.8,69.07,206.16,69.07,206.6L69.07,206.6z"
				/>
		</g>
		<g id="ipv6_pc_6_">
			<ellipse cx="377.11" cy="68.43" rx="19.3" ry="4.94"/>
			<g>
				<path d="M378.74,57.78c0,0.9-0.73,1.64-1.64,1.64s-1.64-0.74-1.64-1.64c0-0.79,0.57-1.45,1.31-1.6v1.68
					c0,0.18,0.15,0.33,0.33,0.33s0.32-0.15,0.32-0.33v-1.68C378.18,56.33,378.74,56.99,378.74,57.78z"/>
			</g>
			<g>
				<path d="M415.58,7.67h-77.34c-0.85,0-1.53,0.69-1.53,1.53v50.34c0,0.85,0.68,1.53,1.53,1.53h77.34c0.85,0,1.53-0.68,1.53-1.53
					V9.2C417.11,8.35,416.43,7.67,415.58,7.67z M377.11,60.05c-1.25,0-2.26-1.02-2.26-2.26c0-1.13,0.84-2.08,1.93-2.23v-0.93
					c0-0.18,0.15-0.32,0.33-0.32s0.32,0.14,0.32,0.32v0.93c1.09,0.15,1.94,1.1,1.94,2.23C379.37,59.03,378.35,60.05,377.11,60.05z"
					/>
			</g>
			<rect x="343.2" y="13.81" class="st3" width="67.82" height="38.67"/>
			<rect x="373.46" y="61.07" width="7.3" height="3.3"/>
			<path class="st4" d="M385.77,65.18h-17.33l0,0c0-0.44,0.36-0.8,0.8-0.8h15.73C385.42,64.38,385.77,64.74,385.77,65.18
				L385.77,65.18z"/>
		</g>
		<line class="st9" x1="326.12" y1="-5.23" x2="326.12" y2="379.37"/>
		<line class="st9" x1="172.82" y1="-5.23" x2="172.82" y2="379.37"/>
		<line class="st9" x1="79.55" y1="299.13" x2="418.77" y2="299.13"/>
		<line class="st9" x1="79.55" y1="54.58" x2="418.77" y2="54.58"/>
	</g>
</g>
<g id="IPv6">
</g>
<g id="TS_logo">
</g>
</svg>
