<?xml version="1.0" encoding="utf-8"?>
<!-- Generator: Adobe Illustrator 25.2.0, SVG Export Plug-In . SVG Version: 6.00 Build 0)  -->
<svg version="1.0" id="Layer_1" xmlns="http://www.w3.org/2000/svg" xmlns:xlink="http://www.w3.org/1999/xlink" x="0px" y="0px"
	 viewBox="0 0 800 792" enable-background="new 0 0 800 792" xml:space="preserve">
<path fill="#599636" d="M397.6,14.1L418.3,53c4.7,7.2,9.7,13.5,15.6,19.4c17.3,17.3,33.8,35.5,48.6,54.9
	c35.1,46.1,58.8,97.2,75.7,152.6c10.1,33.8,15.6,68.5,16.1,103.5c1.7,104.8-34.2,194.8-106.7,269.6c-11.8,11.8-24.5,22.8-38.1,32.5
	c-7.2,0-10.6-5.5-13.5-10.6c-5.5-9.3-8.9-19.9-10.6-30.4c-2.5-12.7-4.2-25.4-3.4-38.5v-5.9C401.4,599.1,395.1,17.1,397.6,14.1z"/>
<path fill="#6CAC48" d="M397.6,12.8c-0.8-1.7-1.7-0.4-2.5,0.4c0.4,8.5-2.5,16.1-7.2,23.3c-5.1,7.2-11.8,12.7-18.6,18.6
	c-37.6,32.5-67.2,71.8-90.9,115.8c-31.5,59.2-47.8,122.6-52.4,189.3c-2.1,24.1,7.6,109,15.2,133.6c20.7,65.1,57.9,119.6,106.1,166.9
	c11.8,11.4,24.5,22,37.6,32.1c3.8,0,4.2-3.4,5.1-5.9c1.7-5.4,2.9-10.9,3.8-16.5l8.5-63.4L397.6,12.8z"/>
<path fill="#C2BFBF" d="M418.3,711.4c0.8-9.7,5.5-17.7,10.6-25.8c-5.1-2.1-8.9-6.3-11.8-11c-2.5-4.2-4.7-9.3-6.3-13.9
	c-5.9-17.7-7.2-36.4-8.9-54.5v-11c-2.1,1.7-2.5,16.1-2.5,18.2c-1.2,19.2-3.8,38.2-7.6,57.1c-1.3,7.6-2.1,15.2-6.8,22
	c0,0.8,0,1.7,0.4,3c7.6,22.4,9.7,45.2,11,68.5v8.5c0,10.1-0.4,8,8,11.4c3.4,1.3,7.2,1.7,10.6,4.2c2.5,0,3-2.1,3-3.8l-1.3-13.9v-38.9
	C416.1,724.6,417.4,717.8,418.3,711.4L418.3,711.4z"/>
</svg>
