<?xml version="1.0" encoding="utf-8"?>
<!-- Generator: Adobe Illustrator 25.2.0, SVG Export Plug-In . SVG Version: 6.00 Build 0)  -->
<svg version="1.0" id="Layer_1" xmlns="http://www.w3.org/2000/svg" xmlns:xlink="http://www.w3.org/1999/xlink" x="0px" y="0px"
	 viewBox="0 0 800 800" enable-background="new 0 0 800 800" xml:space="preserve">
<g>
	<circle fill="#FFFFFF" cx="400" cy="400" r="400"/>
	<path d="M376.1,35.1c-1.6,0.1-6.6,0.6-11.1,1c-103.7,9.3-200.9,65.3-262.4,151.3c-34.3,47.8-56.2,102.1-64.5,159.5
		c-2.9,20.1-3.3,26-3.3,53.2s0.4,33.1,3.3,53.2c19.8,137.1,117.4,252.3,249.7,295c23.7,7.6,48.7,12.8,77.1,16
		c11.1,1.2,58.9,1.2,69.9,0c49-5.4,90.6-17.6,131.5-38.5c6.3-3.2,7.5-4.1,6.6-4.8c-0.6-0.4-27.3-36.3-59.5-79.7l-58.4-78.9
		l-73.2-108.3c-40.3-59.5-73.4-108.2-73.7-108.2c-0.3-0.1-0.6,48-0.7,106.8c-0.2,102.8-0.3,107-1.6,109.4c-1.9,3.5-3.3,4.9-6.3,6.5
		c-2.3,1.1-4.3,1.4-15.1,1.4h-12.3l-3.3-2.1c-2.1-1.4-3.7-3.1-4.8-5.2l-1.5-3.2l0.1-143.1l0.2-143.2l2.2-2.8
		c1.1-1.5,3.6-3.4,5.3-4.4c2.9-1.4,4.1-1.6,16.4-1.6c14.6,0,17,0.6,20.8,4.7c1.1,1.1,40.7,60.8,88.1,132.7s112.2,170,144,218.2
		l57.8,87.6l2.9-1.9c25.9-16.8,53.3-40.8,75-65.8c46.2-53,75.9-117.7,85.9-186.6c2.9-20.1,3.3-26,3.3-53.2s-0.4-33.1-3.3-53.2
		C742,209.8,644.4,94.6,512.1,52c-23.3-7.6-48.2-12.8-76-15.9C429.2,35.3,382,34.5,376.1,35.1L376.1,35.1z M525.5,255.9
		c3.4,1.7,6.2,5,7.2,8.4c0.6,1.9,0.7,41.5,0.6,131l-0.2,128.3l-22.6-34.7l-22.7-34.7V361c0-60.3,0.3-94.2,0.7-95.8
		c1.1-4,3.6-7.1,7.1-9c2.9-1.5,4-1.6,15.2-1.6C521.3,254.5,523.2,254.6,525.5,255.9z"/>
</g>
</svg>
