<?xml version="1.0" encoding="utf-8"?>
<!-- Generator: Adobe Illustrator 25.2.0, SVG Export Plug-In . SVG Version: 6.00 Build 0)  -->
<svg version="1.0" id="Layer_1" xmlns="http://www.w3.org/2000/svg" xmlns:xlink="http://www.w3.org/1999/xlink" x="0px" y="0px"
	 viewBox="0 0 800 495" enable-background="new 0 0 800 495" xml:space="preserve">
<path fill-rule="evenodd" clip-rule="evenodd" fill="#38BDF8" d="M400,7.8c-106.7,0-173.3,53.3-200,160
	c40-53.3,87.4-74.1,140.7-60.7c31.1,7.4,51.9,29.6,75.6,54.8c38.5,40,84.4,85.9,183.7,85.9c106.7,0,173.3-53.3,200-160
	c-40,53.3-85.9,74.1-140.7,59.3c-31.1-7.4-51.9-29.6-75.6-54.8C545.2,53.7,499.3,7.8,400,7.8z M200,247.8
	c-106.7,0-173.3,53.3-200,160c40-53.3,85.9-74.1,139.3-59.3c31.1,7.4,51.9,29.6,75.6,54.8c38.5,40,84.4,85.9,183.7,85.9
	c106.7,0,173.3-53.3,200-160c-40,53.3-85.9,72.6-140.7,59.3c-31.1-7.4-51.9-29.6-75.6-54.8C345.2,293.7,299.3,247.8,200,247.8z"/>
<path display="none" fill-rule="evenodd" clip-rule="evenodd" fill="#FFFFFF" d="M412.8,166.8h-4.7v9.1c0,2.4,1.6,2.4,4.7,2.2v3.7
	c-6.3,0.8-8.8-1-8.8-5.9v-9.1h-3.5v-4h3.5v-5.1l4.1-1.2v6.3h4.7V166.8z M430.8,162.9h4.1v19h-4.1v-2.7c-1.4,2-3.7,3.2-6.7,3.2
	c-5.2,0-9.5-4.4-9.5-10c0-5.7,4.3-10,9.5-10c3,0,5.2,1.2,6.7,3.2V162.9z M424.8,178.5c3.4,0,6-2.5,6-6.1c0-3.5-2.6-6.1-6-6.1
	c-3.4,0-6,2.5-6,6.1C418.8,175.9,421.4,178.5,424.8,178.5z M441.7,160c-1.4,0-2.6-1.2-2.6-2.6c0-0.7,0.3-1.4,0.8-1.9
	s1.2-0.8,1.9-0.8c0.7,0,1.4,0.3,1.9,0.8s0.8,1.2,0.8,1.9C444.4,158.8,443.2,160,441.7,160z M439.7,181.9v-19h4.1v19H439.7z
	 M448.5,181.9v-27.7h4.1v27.7C452.6,181.9,448.5,181.9,448.5,181.9z M479.3,162.9h4.3l-6,19h-4l-4-12.8l-4,12.8h-4l-6-19h4.4
	l3.7,13.1l4-13.1h3.9l4,13.1L479.3,162.9z M488.7,160c-1.4,0-2.6-1.2-2.6-2.6c0-0.7,0.3-1.4,0.8-1.9s1.2-0.8,1.9-0.8
	c0.7,0,1.4,0.3,1.9,0.8s0.8,1.2,0.8,1.9C491.3,158.8,490.2,160,488.7,160z M486.7,181.9v-19h4.1v19H486.7z M505.5,162.4
	c4.3,0,7.3,2.9,7.3,7.8v11.7h-4.1v-11.2c0-2.9-1.7-4.4-4.3-4.4c-2.7,0-4.8,1.6-4.8,5.5V182h-4.1v-19h4.1v2.4
	C500.9,163.3,502.9,162.4,505.5,162.4z M532.3,155.3h4.1v26.6h-4.1v-2.7c-1.4,2-3.7,3.2-6.6,3.2c-5.2,0-9.5-4.4-9.5-10
	c0-5.7,4.3-10,9.5-10c3,0,5.2,1.2,6.6,3.2V155.3z M526.3,178.5c3.4,0,6-2.5,6-6.1c0-3.5-2.6-6.1-6-6.1c-3.4,0-6,2.5-6,6.1
	C520.2,175.9,522.8,178.5,526.3,178.5z M550.1,182.4c-5.7,0-10-4.4-10-10c0-5.7,4.3-10,10-10c3.7,0,7,1.9,8.5,4.9l-3.5,2.1
	c-0.8-1.8-2.7-2.9-5-2.9c-3.3,0-5.9,2.5-5.9,6c0,3.4,2.5,6,5.9,6c2.3,0,4.1-1.2,5.1-2.9l3.5,2C557.1,180.4,553.8,182.4,550.1,182.4z
	 M565.4,168.1c0,3.5,10.2,1.4,10.2,8.4c0,3.8-3.3,5.9-7.4,5.9c-3.8,0-6.5-1.7-7.8-4.4l3.5-2.1c0.6,1.7,2.1,2.7,4.2,2.7
	c1.8,0,3.2-0.6,3.2-2.1c0-3.4-10.2-1.5-10.2-8.3c0-3.6,3.1-5.8,7-5.8c3.1,0,5.7,1.4,7,4l-3.5,1.9c-0.7-1.5-2-2.2-3.6-2.2
	C566.7,166.1,565.4,166.8,565.4,168.1z M582.9,168.1c0,3.5,10.2,1.4,10.2,8.4c0,3.8-3.3,5.9-7.4,5.9c-3.8,0-6.5-1.7-7.8-4.4l3.5-2.1
	c0.6,1.7,2.1,2.7,4.2,2.7c1.8,0,3.2-0.6,3.2-2.1c0-3.4-10.2-1.5-10.2-8.3c0-3.6,3.1-5.8,7-5.8c3.1,0,5.7,1.4,7,4l-3.5,1.9
	c-0.7-1.5-2-2.2-3.6-2.2C584.2,166.1,582.9,166.8,582.9,168.1z"/>
</svg>
