<?xml version="1.0" encoding="utf-8"?>
<!-- Generator: Adobe Illustrator 25.2.0, SVG Export Plug-In . SVG Version: 6.00 Build 0)  -->
<svg version="1.1" xmlns="http://www.w3.org/2000/svg" xmlns:xlink="http://www.w3.org/1999/xlink" x="0px" y="0px"
	 viewBox="0 0 512 512" style="enable-background:new 0 0 512 512;" xml:space="preserve">
<style type="text/css">
	.st0{fill:none;stroke:#000000;stroke-width:7;stroke-miterlimit:10;}
	.st1{fill:#3178C6;}
</style>
<g id="TS_logo">
	<g id="TS_Logo_1_">
		<path class="st1" d="M462,0H50C22.39,0,0,22.39,0,50v412c0,27.61,22.39,50,50,50h412c27.62,0,50-22.39,50-50V50
			C512,22.39,489.62,0,462,0z M294.85,295.4h-66.9v159.76h-53V295.4h-66.57v-35.88h186.47V295.4z M468.16,427.67
			c-4.96,7.42-11.69,13.42-20.2,18.01c-8.51,4.6-18.4,7.89-29.69,9.89c-11.29,2-23.2,3.01-35.74,3.01
			c-12.87,0-25.11-0.92-36.72-2.73c-11.62-1.82-21.68-4.55-30.18-8.19V404c9.48,6.64,19.79,11.62,30.91,14.94
			c11.13,3.32,22.36,4.98,33.7,4.98c6.65,0,12.46-0.5,17.42-1.5s9.1-2.39,12.43-4.16c3.33-1.77,5.81-3.87,7.44-6.28
			c1.64-2.4,2.46-5.02,2.46-7.84c0-3.82-1.31-7.23-3.93-10.23c-2.61-3-6.19-5.78-10.71-8.33c-4.53-2.54-9.9-5-16.11-7.36
			c-6.22-2.37-12.93-4.78-20.12-7.23c-18.32-6.37-31.98-14.15-40.98-23.33c-9-9.19-13.49-20.29-13.49-33.29
			c0-10.19,2.45-18.94,7.36-26.27c4.9-7.32,11.58-13.34,20.03-18.07c8.45-4.73,18.24-8.21,29.37-10.44
			c11.12-2.23,22.9-3.34,35.33-3.34c12.21,0,23.03,0.61,32.47,1.84c9.43,1.23,18.13,3.12,26.09,5.66v40.79
			c-3.93-2.27-8.21-4.27-12.84-6c-4.64-1.73-9.41-3.16-14.32-4.3c-4.9-1.13-9.78-1.97-14.64-2.52c-4.85-0.55-9.46-0.82-13.82-0.82
			c-6,0-11.45,0.48-16.35,1.43c-4.91,0.96-9.06,2.3-12.44,4.03s-6,3.8-7.85,6.21c-1.85,2.41-2.78,5.11-2.78,8.11
			c0,3.28,1.04,6.21,3.11,8.8c2.07,2.6,5.01,5.05,8.83,7.37c3.82,2.32,8.45,4.59,13.91,6.82c5.45,2.23,11.61,4.53,18.48,6.89
			c9.38,3.28,17.8,6.76,25.27,10.44c7.47,3.68,13.88,7.84,19.22,12.48c5.34,4.64,9.43,9.94,12.27,15.9
			c2.84,5.95,4.25,12.89,4.25,20.8C475.6,411.1,473.12,420.26,468.16,427.67z"/>
	</g>
</g>
</svg>
